<svg width="64" height="64" viewBox="0 0 64 64" fill="none" xmlns="http://www.w3.org/2000/svg">
  <path d="M14.6 10.8C21.4 15.9 28.7 26.1 32 31.6C35.3 26.1 42.6 15.9 49.4 10.8C54.3 7.1 62.2 4.2 62.2 13.4C62.2 15.2 61.2 28.7 60.6 30.9C58.6 38 51.4 39.8 45 38.7C56.2 40.6 59.1 47 52.9 53.4C41 65.5 35.9 50.4 34.6 46.5C34.3 45.8 34.2 45.5 34 45.5C33.8 45.5 33.7 45.8 33.4 46.5C32.1 50.4 27 65.5 15.1 53.4C8.9 47 11.8 40.6 23 38.7C16.6 39.8 9.4 38 7.4 30.9C6.8 28.7 5.8 15.2 5.8 13.4C5.8 4.2 13.7 7.1 18.6 10.8H14.6Z" fill="#1185FE"/>
</svg>
